<svg xmlns="http://www.w3.org/2000/svg" viewBox="0 0 848 480" role="img" aria-label="ProCabinet.App tab icon set">
  <title>ProCabinet.App — tab icon set</title>
  <rect x="1" y="1" width="846" height="478" rx="24" fill="#ffffff" stroke="#e0e0e0" stroke-width="2"/>
  <g transform="translate(116,116) scale(2.6666666666666665)" fill="none" stroke="#111111" stroke-width="2" stroke-linecap="round" stroke-linejoin="round"><rect x="3" y="3" width="7" height="7" rx="1"/><rect x="14" y="3" width="7" height="7" rx="1"/><rect x="3" y="14" width="7" height="7" rx="1"/><rect x="14" y="14" width="7" height="7" rx="1"/></g><g transform="translate(300,116) scale(2.6666666666666665)" fill="none" stroke="#111111" stroke-width="1.5" stroke-linecap="round" stroke-linejoin="round"><path d="M12.00 1.70 L12.90 3.45 L15.94 2.48 L16.10 4.44 L19.28 4.72 L18.68 6.59 L21.52 8.06 L20.25 9.56 L22.30 12.00 L20.55 12.90 L21.52 15.94 L19.56 16.10 L19.28 19.28 L17.41 18.68 L15.94 21.52 L14.44 20.25 L12.00 22.30 L11.10 20.55 L8.06 21.52 L7.90 19.56 L4.72 19.28 L5.32 17.41 L2.48 15.94 L3.75 14.44 L1.70 12.00 L3.45 11.10 L2.48 8.06 L4.44 7.90 L4.72 4.72 L6.59 5.32 L8.06 2.48 L9.56 3.75 Z"/><circle cx="12" cy="12" r="1.5"/></g><g transform="translate(484,116) scale(2.6666666666666665)" fill="none" stroke="#111111" stroke-width="2" stroke-linecap="round" stroke-linejoin="round"><rect x="3" y="3" width="18" height="18" rx="2"/><path d="M3 9h18M9 21V9"/></g><g transform="translate(668,116) scale(2.6666666666666665)" fill="none" stroke="#111111" stroke-width="2" stroke-linecap="round" stroke-linejoin="round"><path d="M21 16V8a2 2 0 00-1-1.73l-7-4a2 2 0 00-2 0l-7 4A2 2 0 003 8v8a2 2 0 001 1.73l7 4a2 2 0 002 0l7-4A2 2 0 0021 16z"/><polyline points="3.27 6.96 12 12.01 20.73 6.96"/><line x1="12" y1="22.08" x2="12" y2="12"/></g><g transform="translate(116,300) scale(2.6666666666666665)" fill="none" stroke="#111111" stroke-width="2" stroke-linecap="round" stroke-linejoin="round"><path d="M16 4h2a2 2 0 012 2v14a2 2 0 01-2 2H6a2 2 0 01-2-2V6a2 2 0 012-2h2"/><rect x="8" y="2" width="8" height="4" rx="1" ry="1"/><line x1="8" y1="13" x2="16" y2="13"/><line x1="8" y1="17" x2="13" y2="17"/></g><g transform="translate(300,300) scale(2.6666666666666665)" fill="none" stroke="#111111" stroke-width="2" stroke-linecap="round" stroke-linejoin="round"><path d="M14 2H6a2 2 0 00-2 2v16a2 2 0 002 2h12a2 2 0 002-2V8z"/><polyline points="14 2 14 8 20 8"/><line x1="16" y1="13" x2="8" y2="13"/><line x1="16" y1="17" x2="8" y2="17"/><polyline points="10 9 9 9 8 9"/></g><g transform="translate(484,300) scale(2.6666666666666665)" fill="none" stroke="#111111" stroke-width="2" stroke-linecap="round" stroke-linejoin="round"><circle cx="12" cy="8" r="4"/><path d="M4 20c0-4 3.6-7 8-7s8 3 8 7"/></g><g transform="translate(668,300) scale(2.6666666666666665)" fill="none" stroke="#111111" stroke-width="2" stroke-linecap="round" stroke-linejoin="round"><rect x="3" y="4" width="18" height="18" rx="2" ry="2"/><line x1="16" y1="2" x2="16" y2="6"/><line x1="8" y1="2" x2="8" y2="6"/><line x1="3" y1="10" x2="21" y2="10"/></g>
</svg>
