<svg xmlns="http://www.w3.org/2000/svg" viewBox="0 0 340 64" role="img" aria-label="Cut List">
  <title>ProCabinet.App — Cut List tab</title>
  <g transform="translate(8,8) scale(2)" fill="none" stroke="#111111" stroke-width="1.5" stroke-linecap="round" stroke-linejoin="round"><path d="M12.00 1.70 L12.90 3.45 L15.94 2.48 L16.10 4.44 L19.28 4.72 L18.68 6.59 L21.52 8.06 L20.25 9.56 L22.30 12.00 L20.55 12.90 L21.52 15.94 L19.56 16.10 L19.28 19.28 L17.41 18.68 L15.94 21.52 L14.44 20.25 L12.00 22.30 L11.10 20.55 L8.06 21.52 L7.90 19.56 L4.72 19.28 L5.32 17.41 L2.48 15.94 L3.75 14.44 L1.70 12.00 L3.45 11.10 L2.48 8.06 L4.44 7.90 L4.72 4.72 L6.59 5.32 L8.06 2.48 L9.56 3.75 Z"/><circle cx="12" cy="12" r="1.5"/></g>
  <text x="80" y="32" dominant-baseline="central" font-family="-apple-system, BlinkMacSystemFont, 'Segoe UI', Helvetica, Arial, sans-serif" font-size="44" font-weight="600" fill="#111111">Cut List</text>
</svg>
